<?xml version="1.0" encoding="UTF-8" standalone="no"?>
<svg
   width="128"
   height="128"
   version="1.0"
   id="svg38"
   sodipodi:docname="org.fedoraproject.AnacondaInstaller.svg"
   inkscape:version="1.1 (c4e8f9e, 2021-05-24)"
   xmlns:inkscape="http://www.inkscape.org/namespaces/inkscape"
   xmlns:sodipodi="http://sodipodi.sourceforge.net/DTD/sodipodi-0.dtd"
   xmlns:xlink="http://www.w3.org/1999/xlink"
   xmlns="http://www.w3.org/2000/svg"
   xmlns:svg="http://www.w3.org/2000/svg"
   xmlns:rdf="http://www.w3.org/1999/02/22-rdf-syntax-ns#"
   xmlns:cc="http://creativecommons.org/ns#"
   xmlns:dc="http://purl.org/dc/elements/1.1/">
  <metadata
     id="metadata42">
    <rdf:RDF>
      <cc:Work
         rdf:about="">
        <dc:format>image/svg+xml</dc:format>
        <dc:type
           rdf:resource="http://purl.org/dc/dcmitype/StillImage" />
      </cc:Work>
    </rdf:RDF>
  </metadata>
  <sodipodi:namedview
     pagecolor="#ffffff"
     bordercolor="#666666"
     borderopacity="1"
     objecttolerance="10"
     gridtolerance="10"
     guidetolerance="10"
     inkscape:pageopacity="0"
     inkscape:pageshadow="2"
     inkscape:window-width="1680"
     inkscape:window-height="943"
     id="namedview40"
     showgrid="false"
     inkscape:zoom="5.8732058"
     inkscape:cx="95.092871"
     inkscape:cy="64.274948"
     inkscape:window-x="0"
     inkscape:window-y="25"
     inkscape:window-maximized="1"
     inkscape:current-layer="g36"
     inkscape:pagecheckerboard="0" />
  <defs
     id="defs16">
    <linearGradient
       xlink:href="#a"
       id="b"
       gradientUnits="userSpaceOnUse"
       gradientTransform="matrix(.23214 0 0 .32895 -8.567 435.827)"
       x1="88.596"
       y1="-449.394"
       x2="536.596"
       y2="-449.394" />
    <linearGradient
       id="a">
      <stop
         offset="0"
         stop-color="#acabae"
         id="stop3" />
      <stop
         offset=".038"
         stop-color="#f7f7f7"
         id="stop5" />
      <stop
         offset=".077"
         stop-color="#deddda"
         id="stop7" />
      <stop
         offset=".923"
         stop-color="#b0afad"
         id="stop9" />
      <stop
         offset=".962"
         stop-color="#c0bfbc"
         id="stop11" />
      <stop
         offset="1"
         stop-color="#77767b"
         id="stop13" />
    </linearGradient>
  </defs>
  <g
     transform="translate(0 -172)"
     id="g36">
    <rect
       ry="8"
       rx="8"
       y="188"
       x="12"
       height="100"
       width="104"
       style="marker:none"
       fill="url(#b)"
       id="rect18" />
    <rect
       style="marker:none"
       width="104"
       height="100"
       x="12"
       y="184"
       rx="8"
       ry="8"
       fill="#fff"
       id="rect20" />
    <g
       transform="translate(-104 -365.5)"
       color="#000"
       id="g26">
      <rect
         ry="4"
         rx="4"
         y="625.5"
         x="128"
         height="8"
         width="80"
         style="marker:none"
         overflow="visible"
         fill="#e1dedb"
         id="rect22" />
      <rect
         ry="4"
         rx="4"
         y="625.5"
         x="128"
         height="8"
         width="48.125"
         style="marker:none"
         overflow="visible"
         fill="#3584e4"
         id="rect24" />
    </g>
    <g
       id="g176"
       transform="matrix(2.4185049,0,0,2.4185049,37.124438,192.92592)">
	<path
   class="st0"
   d="m 21,13.4 c 0.9,-0.1 1.7,0.5 1.7,1.4 0.1,0.9 -0.6,1.7 -1.5,1.8 -0.9,0.1 -1.7,-0.6 -1.7,-1.5 -0.1,-0.9 0.6,-1.6 1.5,-1.7 z"
   id="path156" />

	<path
   class="st1"
   d="m 9.9,20.8 c 0,-0.9 0.7,-1.6 1.5,-1.6 0.8,0 1.7,0.8 1.7,1.7 0,0.8 -0.7,1.6 -1.5,1.6 -1,0 -1.7,-0.6 -1.7,-1.7 z"
   id="path158" />

	<path
   class="st2"
   d="m 12.4,10.6 c -0.1,0.1 -0.2,0 -0.2,-0.1 C 10.8,8 11.2,5 13.5,3.1 14.1,2.6 15.2,2.5 15.7,3 15.9,3.2 16,3.4 16,3.7 c 0.1,0.5 0.2,1.1 0.5,1.5 0.4,0.5 0.9,0.6 1.4,0.6 0.5,0 1,-0.1 1.3,0.5 0.2,0.3 0.1,1.5 -0.2,1.8 -0.1,0.1 -0.2,0 -0.4,0 C 17.8,7.8 16.9,7.8 16.1,7.9 15.8,7.9 15.7,7.9 15.7,7.5 15.7,7 15.6,6.5 15.3,6 14.8,5.1 13.8,5 13.2,5.9 c -0.5,0.7 -0.7,1.5 -0.8,2.4 -0.1,0.7 0,1.5 0,2.3 0,0 0,0 0,0 z"
   id="path160" />

	<path
   class="st0"
   d="m 13.3,11.1 c -0.1,-0.1 0,-0.2 0.1,-0.3 2,-1.8 5,-2.2 7.3,-0.4 0.6,0.5 1,1.5 0.7,2.1 -0.1,0.2 -0.3,0.4 -0.5,0.4 -0.5,0.2 -0.9,0.4 -1.3,0.9 -0.3,0.5 -0.4,1 -0.2,1.5 0.1,0.5 0.3,0.9 -0.2,1.4 -0.2,0.2 -1.4,0.5 -1.8,0.2 -0.1,-0.1 -0.1,-0.2 -0.1,-0.4 0.1,-0.9 -0.1,-1.7 -0.4,-2.5 -0.1,-0.3 -0.1,-0.4 0.2,-0.5 0.5,-0.1 0.9,-0.4 1.3,-0.7 0.8,-0.7 0.6,-1.7 -0.4,-2.1 -0.8,-0.4 -1.7,-0.3 -2.5,-0.2 -0.8,0.2 -1.5,0.4 -2.2,0.6 z"
   id="path162" />

	<path
   class="st1"
   d="m 12.8,12 c 0.1,-0.1 0.2,-0.1 0.3,0 2.3,1.4 3.5,4.2 2.5,6.9 -0.3,0.7 -1.2,1.4 -1.9,1.2 -0.3,-0.1 -0.4,-0.2 -0.6,-0.4 -0.3,-0.4 -0.7,-0.8 -1.2,-1 -0.6,-0.2 -1.1,-0.1 -1.5,0.2 C 10,19.2 9.5,19.5 9,19.2 8.7,19 8.2,17.9 8.3,17.6 c 0.1,-0.1 0.2,-0.1 0.4,-0.1 0.9,-0.1 1.6,-0.6 2.3,-1.1 0.2,-0.2 0.4,-0.2 0.6,0.1 0.3,0.4 0.6,0.8 1.1,1 0.9,0.5 1.8,0.1 1.9,-1 0.1,-0.9 -0.2,-1.7 -0.5,-2.4 -0.5,-0.8 -0.9,-1.4 -1.3,-2.1 z"
   id="path164" />

	<path
   class="st3"
   d="m 11.7,12.2 c -0.1,0.7 -0.5,1.4 -0.9,2 C 9.5,16.1 7.7,16.9 5.5,16.7 4.7,16.6 4,16 4,15.3 4,15 4,14.8 4.2,14.6 4.4,14.3 4.7,14 4.8,13.6 5,12.8 4.7,12.2 4.2,11.6 3.4,10.8 3.5,10.1 4.4,9.6 4.5,9.5 4.6,9.5 4.8,9.4 5,9.3 5.2,9.3 5.3,9.5 5.6,10.3 6.2,10.9 7,11.4 7,11.6 7,11.7 6.8,12 6.4,12.5 6.1,13 6.1,13.7 6,14.5 6.5,15 7.3,15 c 0.5,0 0.9,-0.2 1.4,-0.4 1.1,-0.6 1.9,-1.4 2.7,-2.2 0.1,-0.1 0.1,-0.2 0.3,-0.2 z"
   id="path166" />

	<path
   class="st4"
   d="M 5.9,4.9 C 6,4.9 6.1,4.9 6.3,5 7.6,5.2 8.4,4.8 8.8,3.6 9.1,2.8 9.7,2.5 10.5,3 c 0,0 0,0 0.1,0 0.8,0.5 0.8,0.5 0.3,1.2 C 10.5,4.8 10.3,5.4 10.2,6.1 10.1,6.4 10,6.4 9.6,6.3 9,6.1 8.4,6.1 7.9,6.3 7.2,6.5 6.9,7.1 7.1,7.8 7.4,8.6 8.2,9 8.8,9.5 c 0.7,0.5 1.4,0.7 2.2,1 0.1,0 0.3,0 0.2,0.2 0,0.1 -0.2,0.1 -0.3,0.1 C 9.3,10.9 7.8,10.6 6.6,9.6 5.4,8.7 4.6,7.5 4.7,5.9 4.9,5.3 5.2,5 5.9,4.9 Z"
   id="path168" />

	<path
   class="st3"
   d="M 3,14.7 C 2.2,14.8 1.3,14.1 1.2,13.2 1.1,12.4 1.8,11.5 2.6,11.4 3.5,11.3 4.4,11.9 4.4,12.8 4.6,13.7 4.1,14.7 3,14.7 Z"
   id="path170" />

	<path
   class="st2"
   d="m 17.8,2.2 c 0.9,-0.1 1.7,0.6 1.8,1.5 0.1,0.8 -0.6,1.7 -1.5,1.7 -0.9,0.1 -1.7,-0.6 -1.8,-1.5 0,-0.8 0.6,-1.6 1.5,-1.7 z"
   id="path172" />

	<path
   class="st4"
   d="M 8.6,2.9 C 8.7,3.8 8.1,4.6 7.1,4.7 6.3,4.8 5.5,4.1 5.4,3.4 5.3,2.4 5.9,1.6 6.8,1.5 7.7,1.4 8.5,2.1 8.6,2.9 Z"
   id="path174" />

</g>
  </g>
  <style
     type="text/css"
     id="style152">
	.st0{fill:#86DA2F;}
	.st1{fill:#24C2FF;}
	.st2{fill:#FFCB12;}
	.st3{fill:#0069DA;}
	.st4{fill:#FF4649;}
</style>
</svg>
