<?xml version="1.0" encoding="utf-8"?>
<!-- Generator: Adobe Illustrator 21.1.0, SVG Export Plug-In . SVG Version: 6.00 Build 0)  -->
<svg version="1.1" id="Слой_1" xmlns="http://www.w3.org/2000/svg" xmlns:xlink="http://www.w3.org/1999/xlink" x="0px" y="0px"
	 viewBox="0 0 393 195" style="enable-background:new 0 0 393 195;" xml:space="preserve">
<style type="text/css">
	.st0{fill:#00245E;}
	.st1{fill:#86DA2F;}
	.st2{fill:#24C2FF;}
	.st3{fill:#FFCB12;}
	.st4{fill:#0069DA;}
	.st5{fill:#FF4649;}
</style>
<title>Монтажная область 1</title>
<g>
	<path class="st0" d="M130.8,117.5l-2.3-7H113l-2.3,7h-8.3l13.5-38.7h9.5l13.6,38.7H130.8z M115.4,103.3H126l-5.3-15.8L115.4,103.3z
		"/>
	<path class="st0" d="M142.5,117.5V77.1h7.2v40.3H142.5z"/>
	<path class="st0" d="M186.7,89.1c3.2,0,5.6,1,7.5,3.1c1.9,2.1,2.9,4.9,2.9,8.3v17H190v-16.6c0-1.7-0.4-3-1.2-3.9
		c-0.8-0.9-2-1.3-3.4-1.3c-1.7,0-2.9,0.6-3.8,1.7c-0.9,1.1-1.3,2.7-1.3,4.6v15.5h-7.1v-16.6c0-1.7-0.4-3-1.2-3.9
		c-0.8-0.9-2-1.3-3.4-1.3c-1.5,0-2.9,0.6-3.9,1.7c-0.9,1.1-1.3,2.7-1.3,4.6v15.5h-7.1V89.8h7.1v3c1.7-2.4,4.2-3.8,7.7-3.8
		c3.4,0,5.9,1.3,7.5,4C180.3,90.4,183,89.1,186.7,89.1z"/>
	<path class="st0" d="M224.1,89.8h7.1v27.6h-7.1v-3.3c-2.1,2.7-5.2,4.1-9.1,4.1c-3.6,0-6.9-1.4-9.5-4.2c-2.7-2.9-4-6.3-4-10.4
		s1.3-7.5,4-10.3c2.7-2.9,5.9-4.3,9.5-4.3c3.9,0,6.9,1.3,9.1,4.1V89.8z M211,109.3c1.4,1.4,3.2,2.2,5.4,2.2s4.1-0.7,5.5-2.2
		c1.4-1.4,2.2-3.3,2.2-5.6s-0.8-4.2-2.2-5.5c-1.4-1.4-3.3-2.2-5.5-2.2s-4,0.8-5.4,2.2c-1.4,1.4-2.1,3.3-2.1,5.5
		C208.9,105.9,209.6,107.8,211,109.3z"/>
	<path class="st0" d="M245.7,110.2h14.7v7.3h-22.3V78.8h7.6V110.2z"/>
	<path class="st0" d="M268,86.5c-1.2,0-2.2-0.4-3.1-1.2c-0.9-0.9-1.3-1.9-1.3-3.1s0.4-2.2,1.3-3.1c0.9-0.9,1.9-1.3,3.1-1.3
		s2.2,0.4,3.1,1.3c0.9,0.9,1.3,1.9,1.3,3.1c0,1.2-0.4,2.2-1.3,3.1C270.2,86.1,269.2,86.5,268,86.5z M264.5,117.5V89.8h7.2v27.6
		H264.5z"/>
	<path class="st0" d="M293.4,89.1c3,0,5.5,1,7.5,3.1c2,2,3,4.9,3,8.4v16.9h-7.1v-16c0-1.9-0.6-3.2-1.5-4.2s-2.3-1.5-4-1.5
		c-1.9,0-3.3,0.6-4.4,1.8c-1.1,1.1-1.7,2.9-1.7,5.1v14.9h-7.1V89.8h7.1v3.1C287,90.4,289.7,89.1,293.4,89.1z"/>
	<path class="st0" d="M328.2,89.8h7.2v27.6h-7.2v-3.1c-1.8,2.5-4.4,3.9-8.2,3.9c-3,0-5.5-1-7.5-3.1c-2-2-2.9-4.9-2.9-8.4V89.8h7.2
		v16c0,1.9,0.4,3.3,1.4,4.3s2.3,1.4,4,1.4c1.9,0,3.3-0.6,4.4-1.7c1.1-1.1,1.7-2.9,1.7-5.2V89.8H328.2z"/>
	<path class="st0" d="M367.3,117.5h-8.3l-6-8.4l-6.1,8.4h-8.2l10.1-14.1l-9.7-13.5h8.2l5.6,7.7l5.5-7.7h8.2l-9.7,13.5L367.3,117.5z"
		/>
	<path class="st1" d="M87,101.8c2.9-0.2,5.2,1.7,5.4,4.5c0.2,3-1.9,5.4-4.8,5.6c-2.8,0.2-5.2-1.9-5.4-4.6
		C82.1,104.3,84,102.1,87,101.8z"/>
	<path class="st2" d="M52.1,125.3c0-2.9,2.2-5.1,4.9-5.1c2.7,0,5.2,2.4,5.2,5.2c0,2.7-2.2,5-4.8,5.1
		C54.2,130.5,52.1,128.5,52.1,125.3z"/>
	<path class="st3" d="M60,93c-0.4,0.2-0.7-0.1-0.8-0.4c-4.1-7.6-2.9-17.2,4.3-23c1.9-1.5,5.4-1.9,7-0.3c0.7,0.6,0.8,1.2,0.9,2
		c0.2,1.7,0.6,3.3,1.7,4.6c1.2,1.4,2.8,2,4.5,1.9c1.5,0,3.1-0.2,4.1,1.5c0.6,1,0.3,4.9-0.6,5.6c-0.4,0.3-0.8,0.1-1.1,0
		c-2.5-1-5.2-1-7.8-0.6c-0.9,0.1-1.3-0.1-1.3-1.1c-0.1-1.7-0.4-3.2-1.3-4.6c-1.7-3-4.8-3.1-6.7-0.3c-1.7,2.2-2.1,4.9-2.5,7.5
		C59.7,88.2,59.8,90.6,60,93C60,93,59.8,93,60,93z"/>
	<path class="st1" d="M62.7,94.7c-0.2-0.3-0.1-0.7,0.2-0.9c6.3-5.7,15.7-6.9,23-1.2c1.9,1.5,3.1,4.8,2.1,6.6c-0.4,0.8-1,1.1-1.7,1.3
		c-1.5,0.7-3,1.3-4,2.8c-1,1.4-1.2,3.1-0.8,4.9c0.3,1.4,0.9,3-0.6,4.3c-0.8,0.8-4.5,1.4-5.5,0.8c-0.4-0.3-0.3-0.7-0.2-1.1
		c0.3-2.8-0.3-5.3-1.3-7.7c-0.3-0.9-0.2-1.3,0.7-1.5c1.5-0.4,3-1.2,4.1-2.3c2.4-2.3,1.9-5.3-1.3-6.6c-2.5-1.1-5.2-0.9-7.7-0.7
		C67.2,93.4,64.9,94,62.7,94.7L62.7,94.7z"/>
	<path class="st2" d="M61.3,97.6c0.3-0.3,0.6-0.2,0.9,0c7.3,4.4,11,13.1,7.7,21.7c-0.9,2.2-3.8,4.4-5.9,3.9
		c-0.9-0.2-1.3-0.7-1.8-1.2c-1-1.3-2.1-2.5-3.8-3.1c-1.8-0.6-3.3-0.2-4.9,0.7c-1.3,0.8-2.7,1.8-4.3,0.8c-1-0.6-2.7-4-2.3-5.1
		c0.2-0.4,0.7-0.4,1.1-0.4c2.8-0.4,5-1.8,7.1-3.5c0.7-0.6,1.2-0.6,1.8,0.2c0.9,1.3,2,2.4,3.4,3.2c2.9,1.7,5.6,0.2,6-3.1
		c0.3-2.8-0.7-5.2-1.5-7.6C63.8,101.7,62.6,99.6,61.3,97.6L61.3,97.6z"/>
	<path class="st4" d="M57.7,98.2c-0.4,2.2-1.4,4.3-2.8,6.2c-4,6-9.7,8.4-16.8,7.7c-2.5-0.2-4.6-2.3-4.9-4.4
		c-0.1-0.9,0.1-1.5,0.7-2.2c0.8-1,1.4-1.9,1.8-3.1c0.7-2.4-0.2-4.4-2-6.2c-2.4-2.4-2.1-4.6,0.8-6.4c0.3-0.2,0.8-0.4,1.2-0.7
		c0.7-0.3,1.2-0.3,1.4,0.4c1,2.5,3,4.4,5.2,6c0.8,0.7,0.8,1.1,0.1,1.9c-1.3,1.4-2.1,3.2-2.2,5.2c-0.2,2.4,1.2,4,3.6,4
		c1.5,0,3-0.6,4.3-1.2c3.4-1.8,6.1-4.3,8.6-7C57.2,98.3,57.3,98.1,57.7,98.2z"/>
	<path class="st5" d="M39.6,75c0.2,0,0.8,0.1,1.3,0.2c4.1,0.8,6.6-0.7,8-4.5c0.9-2.5,2.8-3.3,5.2-2c0.1,0,0.1,0.1,0.2,0.1
		c2.4,1.4,2.4,1.7,0.8,3.9c-1.3,1.8-2,3.8-2.3,5.9c-0.2,1.2-0.7,1.4-1.8,1c-1.8-0.7-3.6-0.7-5.5,0c-2.1,0.7-3,2.5-2.3,4.6
		c0.9,2.8,3.3,4,5.4,5.4c2.1,1.4,4.5,2.2,6.9,3.2c0.3,0.1,0.9,0.1,0.8,0.7c-0.1,0.3-0.6,0.3-1,0.3c-5,0.2-9.7-0.6-13.6-3.9
		c-3.6-3-6.3-6.6-5.9-11.7C36.3,76.6,37.5,75.4,39.6,75z"/>
	<path class="st4" d="M30.6,106.1c-2.7,0.3-5.3-1.9-5.5-4.6c-0.2-2.7,2-5.3,4.5-5.5c2.9-0.3,5.5,1.7,5.7,4.3
		C35.4,102.8,33.8,105.9,30.6,106.1z"/>
	<path class="st3" d="M77,66.7c2.8-0.2,5.4,2,5.6,4.8c0.2,2.7-2,5.2-4.6,5.4c-2.9,0.2-5.4-1.9-5.6-4.6C72.1,69.5,74.1,67,77,66.7z"
		/>
	<path class="st5" d="M48.1,68.8c0.3,2.9-1.7,5.3-4.6,5.7c-2.5,0.3-5.2-1.8-5.5-4.2c-0.3-3.2,1.4-5.5,4.4-5.9
		C45.1,64.2,47.8,66.3,48.1,68.8z"/>
</g>
</svg>
